<?xml version="1.0" standalone="no"?>
<!DOCTYPE svg PUBLIC "-//W3C//DTD SVG 20010904//EN"
 "http://www.w3.org/TR/2001/REC-SVG-20010904/DTD/svg10.dtd">
<svg version="1.0" xmlns="http://www.w3.org/2000/svg"
 width="1024.000000pt" height="1024.000000pt" viewBox="0 0 1024.000000 1024.000000"
 preserveAspectRatio="xMidYMid meet">
<metadata>
Created by potrace 1.14, written by Peter Selinger 2001-2017
</metadata>
<g transform="translate(0.000000,1024.000000) scale(0.100000,-0.100000)"
fill="#000000" stroke="none">
<path d="M0 5120 l0 -5120 5120 0 5120 0 0 5120 0 5120 -5120 0 -5120 0 0
-5120z m5589 4415 c799 -88 1543 -379 2176 -849 414 -309 802 -721 1077 -1146
386 -596 614 -1239 695 -1962 24 -213 24 -703 0 -916 -81 -723 -310 -1368
-695 -1962 -329 -507 -794 -972 -1302 -1302 -588 -383 -1239 -613 -1962 -695
-213 -24 -703 -24 -916 0 -1068 121 -1988 569 -2727 1328 -699 718 -1117 1610
-1232 2631 -24 213 -24 703 0 916 80 705 299 1337 664 1915 454 717 1137 1314
1899 1661 514 234 1003 356 1594 400 119 8 591 -4 729 -19z"/>
<path d="M4832 8669 c-860 -76 -1626 -432 -2228 -1033 -571 -572 -915 -1280
-1020 -2101 -26 -196 -26 -634 0 -830 55 -431 163 -795 348 -1165 179 -360
388 -651 672 -936 572 -571 1280 -915 2101 -1020 196 -26 634 -26 830 0 431
55 795 163 1165 348 362 180 650 386 936 672 571 572 917 1284 1021 2101 24
196 24 634 0 830 -104 817 -450 1529 -1021 2101 -563 562 -1266 908 -2061
1015 -174 23 -579 33 -743 18z m-61 -1285 c84 -25 143 -59 199 -114 171 -172
171 -448 0 -620 -79 -78 -200 -130 -305 -130 -172 0 -354 -115 -480 -304 -60
-91 -93 -162 -129 -275 -27 -84 -56 -260 -56 -335 l0 -46 358 0 c386 0 408 -2
514 -56 129 -65 228 -232 228 -384 0 -152 -99 -319 -228 -384 -105 -53 -130
-56 -494 -56 l-338 0 0 -728 c0 -641 -2 -735 -16 -783 -48 -162 -151 -265
-313 -313 -226 -67 -473 80 -537 319 -11 40 -14 202 -14 778 l0 727 -257 0
c-184 0 -272 4 -308 14 -197 52 -335 228 -335 426 0 198 138 374 335 426 35
10 121 14 285 14 l236 0 12 158 c62 816 546 1473 1208 1641 163 42 344 52 435
25z m2072 -1059 c165 -43 279 -157 322 -322 11 -41 15 -111 15 -250 l0 -193
193 0 c208 0 266 -9 357 -55 153 -78 252 -278 223 -450 -31 -181 -153 -314
-330 -360 -41 -11 -111 -15 -250 -15 l-193 0 0 -193 c0 -139 -4 -209 -15 -250
-46 -177 -179 -299 -360 -330 -172 -29 -372 70 -450 223 -46 91 -55 149 -55
357 l0 193 -198 0 c-212 0 -258 7 -354 56 -129 65 -228 232 -228 384 0 152 99
319 228 384 96 49 142 56 354 56 l198 0 0 193 c0 265 25 351 130 457 109 108
268 153 413 115z"/>
</g>
</svg>
